simulation
nRows=67
nColumns=15
endheader
time  TH_x TH_y TH_z SC_y  SC_z  SC_x  AC_y  AC_z  AC_x  GH_y  GH_z  GH_yy  EL_x  PS_y
0.249908  0.000000  0.000000  0.000000  -28.298431  -7.705641  32.857143  48.589827  -24.336063  -28.119191  15.257551  67.066025  -9.619479  65.425002  82.756253
0.250276  0.000000  0.000000  0.000000  -28.298431  -7.705641  41.428571  45.547510  -30.619451  -34.697202  15.257551  67.066025  -9.619479  65.425002  82.756253
0.250644  0.000000  0.000000  0.000000  -15.829256  21.229349  -10.000000  60.629932  11.859061  5.444860  -19.348028  29.272001  -26.302884  32.875884  85.265999
0.251012  0.000000  0.000000  0.000000  -15.829256  21.229349  -1.428571  61.224672  4.364203  1.240726  -19.348028  29.272001  -26.302884  32.875884  85.265999
0.251380  0.000000  0.000000  0.000000  -15.829256  21.229349  7.142857  61.268316  -3.153590  -2.879765  -19.348028  29.272001  -26.302884  32.875884  85.265999
0.251748  0.000000  0.000000  0.000000  -15.829256  21.229349  15.714286  60.764447  -10.654870  -7.060509  -19.348028  29.272001  -26.302884  32.875884  85.265999
0.252116  0.000000  0.000000  0.000000  -15.829256  21.229349  24.285714  59.671146  -18.097944  -11.452568  -19.348028  29.272001  -26.302884  32.875884  85.265999
0.252484  0.000000  0.000000  0.000000  -15.829256  21.229349  32.857143  57.894003  -25.432839  -16.232975  -19.348028  29.272001  -26.302884  32.875884  85.265999
0.252852  0.000000  0.000000  0.000000  -15.829256  21.229349  41.428571  55.270809  -32.593145  -21.627939  -19.348028  29.272001  -26.302884  32.875884  85.265999
0.253220  0.000000  0.000000  0.000000  -11.853884  20.251679  -10.000000  45.897377  28.309388  23.330399  -13.582118  -12.870587  39.609542  13.482362  90.609648
0.253589  0.000000  0.000000  0.000000  -11.853884  20.251679  -1.428571  48.634563  22.006366  16.906912  -13.582118  -12.870587  39.609542  13.482362  90.609648
0.253957  0.000000  0.000000  0.000000  -11.853884  20.251679  7.142857  50.523755  15.474915  11.040980  -13.582118  -12.870587  39.609542  13.482362  90.609648
0.254325  0.000000  0.000000  0.000000  -11.853884  20.251679  15.714286  51.683391  8.798680  5.538818  -13.582118  -12.870587  39.609542  13.482362  90.609648
0.254693  0.000000  0.000000  0.000000  -11.853884  20.251679  24.285714  52.185937  2.045470  0.233325  -13.582118  -12.870587  39.609542  13.482362  90.609648
0.255061  0.000000  0.000000  0.000000  -11.853884  20.251679  32.857143  52.062627  -4.725100  -5.027489  -13.582118  -12.870587  39.609542  13.482362  90.609648
0.255429  0.000000  0.000000  0.000000  -11.853884  20.251679  41.428571  51.305815  -11.455256  -10.392107  -13.582118  -12.870587  39.609542  13.482362  90.609648
0.255797  0.000000  0.000000  0.000000  -11.853884  20.251679  50.000000  49.868379  -18.082963  -16.017103  -13.582118  -12.870587  39.609542  13.482362  90.609648
0.256165  0.000000  0.000000  0.000000  -11.394095  -6.961974  -10.000000  60.002018  24.438958  11.184799  -45.465572  31.169676  -9.201939  61.099141  87.413640
0.256533  0.000000  0.000000  0.000000  -11.394095  -6.961974  -1.428571  61.585127  16.953205  6.716818  -45.465572  31.169676  -9.201939  61.099141  87.413640
0.256901  0.000000  0.000000  0.000000  -11.394095  -6.961974  7.142857  62.526446  9.377813  2.594680  -45.465572  31.169676  -9.201939  61.099141  87.413640
0.257269  0.000000  0.000000  0.000000  -11.394095  -6.961974  15.714286  62.910126  1.756813  -1.349889  -45.465572  31.169676  -9.201939  61.099141  87.413640
0.257637  0.000000  0.000000  0.000000  -11.394095  -6.961974  24.285714  62.769276  -5.872436  -5.262223  -45.465572  31.169676  -9.201939  61.099141  87.413640
0.258005  0.000000  0.000000  0.000000  -11.394095  -6.961974  32.857143  62.091824  -13.473749  -9.283570  -45.465572  31.169676  -9.201939  61.099141  87.413640
0.258373  0.000000  0.000000  0.000000  -11.394095  -6.961974  41.428571  60.818388  -21.006930  -13.569087  -45.465572  31.169676  -9.201939  61.099141  87.413640
0.258741  0.000000  0.000000  0.000000  -11.394095  -6.961974  50.000000  58.831670  -28.421481  -18.308802  -45.465572  31.169676  -9.201939  61.099141  87.413640
0.259109  0.000000  0.000000  0.000000  -14.671656  21.649413  -10.000000  43.454256  18.371482  7.409366  19.164746  30.286175  -94.445232  59.384796  88.760705
0.259477  0.000000  0.000000  0.000000  -14.671656  21.649413  -1.428571  45.144355  12.378771  1.049744  19.164746  30.286175  -94.445232  59.384796  88.760705
0.259845  0.000000  0.000000  0.000000  -14.671656  21.649413  7.142857  46.128910  6.245059  -5.020658  19.164746  30.286175  -94.445232  59.384796  88.760705
0.260213  0.000000  0.000000  0.000000  -14.671656  21.649413  15.714286  46.454868  0.043501  -10.949430  19.164746  30.286175  -94.445232  59.384796  88.760705
0.260582  0.000000  0.000000  0.000000  -14.671656  21.649413  24.285714  46.137944  -6.158533  -16.877227  19.164746  30.286175  -94.445232  59.384796  88.760705
0.260950  0.000000  0.000000  0.000000  -14.671656  21.649413  32.857143  45.162865  -12.293668  -22.944654  19.164746  30.286175  -94.445232  59.384796  88.760705
0.261318  0.000000  0.000000  0.000000  -14.671656  21.649413  41.428571  43.483112  -18.288908  -29.299156  19.164746  30.286175  -94.445232  59.384796  88.760705
0.261686  0.000000  0.000000  0.000000  -14.671656  21.649413  50.000000  41.020738  -24.059491  -36.100686  19.164746  30.286175  -94.445232  59.384796  88.760705
0.262054  0.000000  0.000000  0.000000  -8.960529  2.321745  -10.000000  46.051297  8.583761  2.734259  -3.011206  54.002670  -10.268886  29.432804  87.901828
0.262422  0.000000  0.000000  0.000000  -8.960529  2.321745  -1.428571  46.620187  2.377619  -3.208025  -3.011206  54.002670  -10.268886  29.432804  87.901828
0.262790  0.000000  0.000000  0.000000  -8.960529  2.321745  7.142857  46.544140  -3.853820  -9.096872  -3.011206  54.002670  -10.268886  29.432804  87.901828
0.263158  0.000000  0.000000  0.000000  -8.960529  2.321745  15.714286  45.819478  -10.044108  -15.072542  -3.011206  54.002670  -10.268886  29.432804  87.901828
0.263526  0.000000  0.000000  0.000000  -8.960529  2.321745  24.285714  44.411048  -16.123308  -21.279706  -3.011206  54.002670  -10.268886  29.432804  87.901828
0.263894  0.000000  0.000000  0.000000  -8.960529  2.321745  32.857143  42.251830  -22.012026  -27.873956  -3.011206  54.002670  -10.268886  29.432804  87.901828
0.264262  0.000000  0.000000  0.000000  -8.960529  2.321745  41.428571  39.243546  -27.614768  -35.026042  -3.011206  54.002670  -10.268886  29.432804  87.901828
0.264630  0.000000  0.000000  0.000000  -8.960529  2.321745  50.000000  35.262274  -32.812610  -42.920068  -3.011206  54.002670  -10.268886  29.432804  87.901828
0.264998  0.000000  0.000000  0.000000  -35.653373  13.261685  -10.000000  46.952868  15.338471  22.522742  25.975709  46.451278  -12.422099  51.068257  91.998602
0.265366  0.000000  0.000000  0.000000  -35.653373  13.261685  -1.428571  48.202415  9.005361  16.610452  25.975709  46.451278  -12.422099  51.068257  91.998602
0.265734  0.000000  0.000000  0.000000  -35.653373  13.261685  7.142857  48.779836  2.581280  10.903659  25.975709  46.451278  -12.422099  51.068257  91.998602
0.266102  0.000000  0.000000  0.000000  -35.653373  13.261685  15.714286  48.716248  -3.868097  5.254530  25.975709  46.451278  -12.422099  51.068257  91.998602
0.266470  0.000000  0.000000  0.000000  -35.653373  13.261685  24.285714  48.008222  -10.279440  -0.481216  25.975709  46.451278  -12.422099  51.068257  91.998602
0.266838  0.000000  0.000000  0.000000  -35.653373  13.261685  32.857143  46.617625  -16.585894  -6.453175  25.975709  46.451278  -12.422099  51.068257  91.998602
0.267206  0.000000  0.000000  0.000000  -35.653373  13.261685  41.428571  44.470178  -22.710737  -12.824768  25.975709  46.451278  -12.422099  51.068257  91.998602
0.267575  0.000000  0.000000  0.000000  -35.653373  13.261685  50.000000  41.454101  -28.560154  -19.780017  25.975709  46.451278  -12.422099  51.068257  91.998602
0.267943  0.000000  0.000000  0.000000  -14.926823  18.441053  -10.000000  37.754014  17.644744  20.966965  -27.657648  25.654046  5.425680  49.490374  90.048732
0.268311  0.000000  0.000000  0.000000  -14.926823  18.441053  -1.428571  39.546672  12.284572  14.040162  -27.657648  25.654046  5.425680  49.490374  90.048732
0.268679  0.000000  0.000000  0.000000  -14.926823  18.441053  7.142857  40.648434  6.757506  7.394352  -27.657648  25.654046  5.425680  49.490374  90.048732
0.269047  0.000000  0.000000  0.000000  -14.926823  18.441053  15.714286  41.096815  1.142509  0.900074  -27.657648  25.654046  5.425680  49.490374  90.048732
0.269415  0.000000  0.000000  0.000000  -14.926823  18.441053  24.285714  40.907605  -4.487089  -5.568806  -27.657648  25.654046  5.425680  49.490374  90.048732
0.269783  0.000000  0.000000  0.000000  -14.926823  18.441053  32.857143  40.074109  -10.058901  -12.137802  -27.657648  25.654046  5.425680  49.490374  90.048732
0.270151  0.000000  0.000000  0.000000  -14.926823  18.441053  41.428571  38.567432  -15.496822  -18.934783  -27.657648  25.654046  5.425680  49.490374  90.048732
0.270519  0.000000  0.000000  0.000000  -14.926823  18.441053  50.000000  36.338227  -20.716293  -26.091739  -27.657648  25.654046  5.425680  49.490374  90.048732
0.270887  0.000000  0.000000  0.000000  -35.940877  3.152818  -10.000000  46.790943  17.173914  8.791782  67.869454  10.803267  -63.272791  13.372904  87.335700
0.271255  0.000000  0.000000  0.000000  -35.940877  3.152818  -1.428571  48.238208  10.847039  2.827986  67.869454  10.803267  -63.272791  13.372904  87.335700
0.271623  0.000000  0.000000  0.000000  -35.940877  3.152818  7.142857  48.998567  4.410310  -2.885973  67.869454  10.803267  -63.272791  13.372904  87.335700
0.271991  0.000000  0.000000  0.000000  -35.940877  3.152818  15.714286  49.113547  -2.069317  -8.501186  67.869454  10.803267  -63.272791  13.372904  87.335700
0.272359  0.000000  0.000000  0.000000  -35.940877  3.152818  24.285714  48.589435  -8.528937  -14.162532  67.869454  10.803267  -63.272791  13.372904  87.335700
0.272727  0.000000  0.000000  0.000000  -35.940877  3.152818  32.857143  47.397588  -14.903771  -20.017797  67.869454  10.803267  -63.272791  13.372904  87.335700
0.273095  0.000000  0.000000  0.000000  -35.940877  3.152818  41.428571  45.473134  -21.120983  -26.226670  67.869454  10.803267  -63.272791  13.372904  87.335700
0.273463  0.000000  0.000000  0.000000  -35.940877  3.152818  50.000000  42.713087  -27.092680  -32.968557  67.869454  10.803267  -63.272791  13.372904  87.335700
0.273831  0.000000  0.000000  0.000000  -10.037194  13.301777  -10.000000  54.831263  13.808894  11.015418  -190.416616  16.293074  216.960402  63.055365  84.094439
0.274199  0.000000  0.000000  0.000000  -10.037194  13.301777  -1.428571  55.718867  6.759597  6.056172  -190.416616  16.293074  216.960402  63.055365  84.094439
